<?xml version="1.0" encoding="UTF-8" standalone="no"?>
<svg
   xmlns:dc="http://purl.org/dc/elements/1.1/"
   xmlns:cc="http://creativecommons.org/ns#"
   xmlns:rdf="http://www.w3.org/1999/02/22-rdf-syntax-ns#"
   xmlns:svg="http://www.w3.org/2000/svg"
   xmlns="http://www.w3.org/2000/svg"
   xmlns:sodipodi="http://sodipodi.sourceforge.net/DTD/sodipodi-0.dtd"
   xmlns:inkscape="http://www.inkscape.org/namespaces/inkscape"
   width="25"
   height="25"
   viewBox="0 0 210 297"
   version="1.1"
   id="svg3735"
   sodipodi:docname="icon_remove_arrow.svg"
   inkscape:version="0.92.3 (2405546, 2018-03-11)">
  <defs
     id="defs3729" />
  <sodipodi:namedview
     id="base"
     pagecolor="#ffffff"
     bordercolor="#666666"
     borderopacity="1.0"
     inkscape:pageopacity="0.0"
     inkscape:pageshadow="2"
     inkscape:zoom="10.6525"
     inkscape:cx="-8.4586872"
     inkscape:cy="12.032275"
     inkscape:document-units="mm"
     inkscape:current-layer="layer1"
     showgrid="true"
     showguides="true"
     inkscape:snap-grids="true"
     inkscape:object-paths="true"
     inkscape:snap-others="true"
     inkscape:window-width="1600"
     inkscape:window-height="821"
     inkscape:window-x="-9"
     inkscape:window-y="-9"
     inkscape:window-maximized="1"
     units="px">
    <inkscape:grid
       type="xygrid"
       id="grid3737" />
  </sodipodi:namedview>
  <metadata
     id="metadata3732">
    <rdf:RDF>
      <cc:Work
         rdf:about="">
        <dc:format>image/svg+xml</dc:format>
        <dc:type
           rdf:resource="http://purl.org/dc/dcmitype/StillImage" />
        <dc:title></dc:title>
      </cc:Work>
    </rdf:RDF>
  </metadata>
  <g
     inkscape:label="Layer 1"
     inkscape:groupmode="layer"
     id="layer1">
    <path
       style="fill:none;stroke:#000000;stroke-width:0.19227122px;stroke-linecap:butt;stroke-linejoin:miter;stroke-opacity:1"
       d="M 33.66932,96.376173 32.69432,211.3301 191.50808,172.02169 191.8563,130.9667 Z"
       id="path3739"
       inkscape:connector-curvature="0" />
    <path
       style="fill:none;stroke:#000000;stroke-width:0.19227122px;stroke-linecap:butt;stroke-linejoin:miter;stroke-opacity:1"
       d="m 72.444291,104.85505 -0.876617,96.8534"
       id="path3743"
       inkscape:connector-curvature="0" />
    <path
       style="fill:none;stroke:#000000;stroke-width:0.19227122px;stroke-linecap:butt;stroke-linejoin:miter;stroke-opacity:1"
       d="m 103.62093,111.67239 -0.30022,82.1768"
       id="path3745"
       inkscape:connector-curvature="0" />
    <path
       style="fill:none;stroke:#000000;stroke-width:0.19227122px;stroke-linecap:butt;stroke-linejoin:miter;stroke-opacity:1"
       d="m 134.89176,118.51035 -0.39084,67.62134"
       id="path3747"
       inkscape:connector-curvature="0" />
    <path
       style="fill:none;stroke:#000000;stroke-width:0.19227122px;stroke-linecap:butt;stroke-linejoin:miter;stroke-opacity:1"
       d="m 162.61479,124.57252 0.032,54.59271"
       id="path3749"
       inkscape:connector-curvature="0" />
    <path
       style="fill:#000000;stroke-width:0.38161334"
       d="m 34.279851,96.84796 c 0.105359,0.0011 8.570613,1.836359 18.811792,4.07821 10.241161,2.24186 18.744768,4.07748 18.896898,4.07916 0.152166,0.001 0.09237,21.72885 -0.132945,48.28262 -0.225223,26.55375 -0.527917,48.27825 -0.672643,48.27666 -0.284861,-0.004 -36.40124,8.88777 -37.435451,9.21562 -0.595226,0.18869 -0.602522,-2.71187 -0.143267,-56.86778 0.26621,-31.38663 0.570186,-57.065647 0.675491,-57.06449 z"
       id="path3751"
       inkscape:connector-curvature="0" />
    <path
       style="fill:#000000;stroke-width:0.38161334"
       d="m 104.52717,112.29079 c 0.49617,0.006 25.82934,5.44585 29.1919,6.26907 L 134.7,118.8 l -0.28454,33.54605 -0.28451,33.54604 -3.13435,0.79558 c -14.2898,3.62721 -27.08172,6.6711 -27.24378,6.48275 -0.10767,-0.12524 -0.11408,-18.37593 -0.0142,-40.55703 0.17032,-37.71459 0.22145,-40.32885 0.78815,-40.3226 z"
       id="path3753"
       inkscape:connector-curvature="0" />
    <path
       style="fill:#000000;fill-opacity:1;stroke-width:0.38161334"
       d="m 163.42648,125.16377 c 0.53026,0.007 21.69911,4.56084 26.12811,5.6221 l 1.87276,0.44875 -0.17227,20.30134 -0.17228,20.30136 -2.59682,0.63428 c -1.42824,0.34886 -7.75481,1.91801 -14.05904,3.487 -6.30424,1.56899 -11.48065,2.8364 -11.50312,2.81647 -0.0224,-0.02 -0.0497,-12.09205 -0.0603,-26.82698 -0.0178,-24.5996 0.0283,-26.79022 0.56277,-26.78432 z"
       id="path4568"
       inkscape:connector-curvature="0" />
    <path
       style="opacity:0;fill:#666666;fill-opacity:1;stroke-width:0.20260805"
       d="m 33.571471,210.25086 c -0.283046,-0.84091 -0.103046,-36.71897 0.459416,-91.57493 0.196267,-19.14078 0.261031,-21.632114 0.562301,-21.632114 0.08489,0 7.742831,1.646794 17.017714,3.659554 9.274864,2.01274 17.667328,3.82667 18.649891,4.03093 l 1.786479,0.3714 -0.125648,23.82037 c -0.191586,36.32274 -0.630678,72.16651 -0.887616,72.45907 -0.05339,0.0609 -4.536531,1.19541 -9.962635,2.52146 -5.426087,1.32603 -13.741133,3.37728 -18.477864,4.55833 -4.736732,1.18104 -8.677076,2.14736 -8.756309,2.14736 -0.0792,0 -0.19883,-0.16268 -0.265747,-0.36142 z"
       id="path18"
       inkscape:connector-curvature="0" />
    <path
       style="opacity:0;fill:#666666;fill-opacity:1;stroke-width:0.20260805"
       d="m 33.571471,210.25086 c -0.283046,-0.84091 -0.103046,-36.71897 0.459416,-91.57493 0.196267,-19.14078 0.261031,-21.632114 0.562301,-21.632114 0.08489,0 7.742831,1.646794 17.017714,3.659554 9.274864,2.01274 17.667328,3.82667 18.649891,4.03093 l 1.786479,0.3714 -0.125648,23.82037 c -0.191586,36.32274 -0.630678,72.16651 -0.887616,72.45907 -0.05339,0.0609 -4.536531,1.19541 -9.962635,2.52146 -5.426087,1.32603 -13.741133,3.37728 -18.477864,4.55833 -4.736732,1.18104 -8.677076,2.14736 -8.756309,2.14736 -0.0792,0 -0.19883,-0.16268 -0.265747,-0.36142 z"
       id="path20"
       inkscape:connector-curvature="0" />
    <path
       style="opacity:0;fill:#666666;fill-opacity:1;stroke-width:0.20260805"
       d="m 33.571471,210.25086 c -0.283046,-0.84091 -0.103046,-36.71897 0.459416,-91.57493 0.196267,-19.14078 0.261031,-21.632114 0.562301,-21.632114 0.08489,0 7.742831,1.646794 17.017714,3.659554 9.274864,2.01274 17.667328,3.82667 18.649891,4.03093 l 1.786479,0.3714 -0.125648,23.82037 c -0.191586,36.32274 -0.630678,72.16651 -0.887616,72.45907 -0.05339,0.0609 -4.536531,1.19541 -9.962635,2.52146 -5.426087,1.32603 -13.741133,3.37728 -18.477864,4.55833 -4.736732,1.18104 -8.677076,2.14736 -8.756309,2.14736 -0.0792,0 -0.19883,-0.16268 -0.265747,-0.36142 z"
       id="path22"
       inkscape:connector-curvature="0" />
    <path
       style="opacity:0;fill:#666666;fill-opacity:1;stroke-width:0.20260805"
       d="m 71.78932,199.91805 c -0.0071,-2.05624 0.8126,-94.75427 0.839029,-94.79152 0.02225,-0.0312 30.738311,6.66582 30.798251,6.71509 0.0639,0.0525 -0.30168,81.73223 -0.36612,81.80574 -0.0347,0.0396 -7.08327,1.81008 -15.66398,3.93501 l -15.601271,3.86355 z"
       id="path24"
       inkscape:connector-curvature="0" />
    <path
       style="opacity:0;fill:#666666;fill-opacity:1;stroke-width:0.20260805"
       d="m 33.571471,210.25086 c -0.283046,-0.84091 -0.103046,-36.71897 0.459416,-91.57493 0.196267,-19.14078 0.261031,-21.632114 0.562301,-21.632114 0.08489,0 7.742831,1.646794 17.017714,3.659554 9.274864,2.01274 17.667328,3.82667 18.649891,4.03093 l 1.786479,0.3714 -0.125648,23.82037 c -0.191586,36.32274 -0.630678,72.16651 -0.887616,72.45907 -0.05339,0.0609 -4.536531,1.19541 -9.962635,2.52146 -5.426087,1.32603 -13.741133,3.37728 -18.477864,4.55833 -4.736732,1.18104 -8.677076,2.14736 -8.756309,2.14736 -0.0792,0 -0.19883,-0.16268 -0.265747,-0.36142 z"
       id="path26"
       inkscape:connector-curvature="0" />
    <path
       style="opacity:0;fill:#666666;fill-opacity:1;stroke-width:0.20260805"
       d="m 33.571471,210.25086 c -0.283046,-0.84091 -0.103046,-36.71897 0.459416,-91.57493 0.196267,-19.14078 0.261031,-21.632114 0.562301,-21.632114 0.08489,0 7.742831,1.646794 17.017714,3.659554 9.274864,2.01274 17.667328,3.82667 18.649891,4.03093 l 1.786479,0.3714 -0.125648,23.82037 c -0.191586,36.32274 -0.630678,72.16651 -0.887616,72.45907 -0.05339,0.0609 -4.536531,1.19541 -9.962635,2.52146 -5.426087,1.32603 -13.741133,3.37728 -18.477864,4.55833 -4.736732,1.18104 -8.677076,2.14736 -8.756309,2.14736 -0.0792,0 -0.19883,-0.16268 -0.265747,-0.36142 z"
       id="path28"
       inkscape:connector-curvature="0" />
    <path
       style="opacity:0;fill:#666666;fill-opacity:1;stroke-width:0.24643297"
       d="M -197.94,152.76283 V 23.950745 H 87.179995 372.3 V 152.76283 281.5749 H 87.179995 -197.94 Z m 302.06538,37.8905 c 56.09278,-12.39523 102.05921,-22.60632 102.1476,-22.69131 0.13475,-0.1296 0.69803,-47.27141 0.56712,-47.46855 C 206.7662,120.38212 2.9998218,80.614189 2.9221322,80.695951 c -0.039858,0.04196 -0.3002125,24.527009 -0.5784681,54.411169 -0.2782547,29.88415 -0.5781239,59.67816 -0.6663555,66.20891 -0.1287845,9.53186 -0.099169,11.87408 0.1503766,11.87408 0.1709387,0 46.2049148,-10.14155 102.2976948,-22.53678 z"
       id="path30"
       inkscape:connector-curvature="0" />
    <path
       style="opacity:0;fill:#ff0000;fill-opacity:1;stroke-width:0.20260805"
       d="m 33.571471,210.25086 c -0.283046,-0.84091 -0.103046,-36.71897 0.459416,-91.57493 0.196267,-19.14078 0.261031,-21.632114 0.562301,-21.632114 0.08489,0 7.742831,1.646794 17.017714,3.659554 9.274864,2.01274 17.667328,3.82667 18.649891,4.03093 l 1.786479,0.3714 -0.125648,23.82037 c -0.191586,36.32274 -0.630678,72.16651 -0.887616,72.45907 -0.05339,0.0609 -4.536531,1.19541 -9.962635,2.52146 -5.426087,1.32603 -13.741133,3.37728 -18.477864,4.55833 -4.736732,1.18104 -8.677076,2.14736 -8.756309,2.14736 -0.0792,0 -0.19883,-0.16268 -0.265747,-0.36142 z"
       id="path32"
       inkscape:connector-curvature="0" />
    <path
       style="opacity:0;fill:#ff0000;fill-opacity:1;stroke-width:0.20260805"
       d="m 33.571471,210.25086 c -0.283046,-0.84091 -0.103046,-36.71897 0.459416,-91.57493 0.196267,-19.14078 0.261031,-21.632114 0.562301,-21.632114 0.08489,0 7.742831,1.646794 17.017714,3.659554 9.274864,2.01274 17.667328,3.82667 18.649891,4.03093 l 1.786479,0.3714 -0.125648,23.82037 c -0.191586,36.32274 -0.630678,72.16651 -0.887616,72.45907 -0.05339,0.0609 -4.536531,1.19541 -9.962635,2.52146 -5.426087,1.32603 -13.741133,3.37728 -18.477864,4.55833 -4.736732,1.18104 -8.677076,2.14736 -8.756309,2.14736 -0.0792,0 -0.19883,-0.16268 -0.265747,-0.36142 z"
       id="path34"
       inkscape:connector-curvature="0" />
    <path
       style="opacity:0.06000001;fill:#ff0000;fill-opacity:1;stroke-width:0.20260805"
       d="m 33.571471,210.25086 c -0.283046,-0.84091 -0.103046,-36.71897 0.459416,-91.57493 0.196267,-19.14078 0.261031,-21.632114 0.562301,-21.632114 0.08489,0 7.742831,1.646794 17.017714,3.659554 9.274864,2.01274 17.667328,3.82667 18.649891,4.03093 l 1.786479,0.3714 -0.125648,23.82037 c -0.191586,36.32274 -0.630678,72.16651 -0.887616,72.45907 -0.05339,0.0609 -4.536531,1.19541 -9.962635,2.52146 -5.426087,1.32603 -13.741133,3.37728 -18.477864,4.55833 -4.736732,1.18104 -8.677076,2.14736 -8.756309,2.14736 -0.0792,0 -0.19883,-0.16268 -0.265747,-0.36142 z"
       id="path40"
       inkscape:connector-curvature="0" />
    <path
       style="opacity:1;fill:#4d4d4d;fill-opacity:1;stroke-width:0.20260805"
       d="m 33.557126,210.23375 c -0.277724,-0.77307 -0.08845,-37.36344 0.476359,-92.09865 0.196231,-19.015871 0.251118,-21.091284 0.557674,-21.091284 0.08596,0 7.74486,1.646794 17.019761,3.659554 9.274864,2.01274 17.653286,3.82373 18.61871,4.0244 l 1.755334,0.36488 -0.0013,11.82108 c -0.0018,20.85473 -0.635092,82.93662 -0.856631,84.10436 -0.07226,0.38095 -0.336295,0.52613 -1.465186,0.8054 -0.757358,0.18738 -5.604023,1.37052 -10.770378,2.62917 -5.166319,1.25868 -12.884715,3.15953 -17.151958,4.22409 -4.267278,1.06458 -7.823363,1.9356 -7.902418,1.9356 -0.07902,0 -0.204935,-0.17033 -0.279736,-0.37856 z"
       id="path847"
       inkscape:connector-curvature="0" />
    <path
       style="opacity:1;fill:#4d4d4d;fill-opacity:1;stroke-width:0.20260805"
       d="m 103.7892,187.96866 c -0.15128,-6.07109 0.22171,-71.23226 0.42175,-73.6599 0.0753,-0.91472 0.19156,-1.72526 0.25819,-1.80117 0.20392,-0.23246 29.7647,6.10316 30.06303,6.44328 0.1495,0.17043 -0.48789,66.64899 -0.64056,66.80788 -0.21394,0.22271 -23.09567,5.88148 -27.46434,6.7921 -0.93933,0.19577 -1.88826,0.40445 -2.1087,0.46373 -0.39668,0.10658 -0.40219,0.0545 -0.5293,-5.04589 z"
       id="path849"
       inkscape:connector-curvature="0" />
    <path
       style="opacity:1;fill:#4d4d4d;fill-opacity:1;stroke-width:0.20260805"
       d="m 162.9748,170.88038 c -0.15857,-8.66843 0.005,-43.96345 0.2091,-44.92987 0.12779,-0.60688 0.15306,-0.6181 1.10054,-0.48981 1.11391,0.15083 12.41865,2.55394 21.14632,4.49521 l 5.94425,1.32215 -0.1123,12.24844 c -0.0614,6.73665 -0.16355,15.8502 -0.226,20.25234 l -0.11373,8.00385 -13.49859,3.32132 c -7.42423,1.82674 -13.68066,3.36758 -13.90319,3.4241 l -0.40462,0.10268 z"
       id="path851"
       inkscape:connector-curvature="0" />
    <path
       style="opacity:1;fill:#fffffb;fill-opacity:0;stroke:none;stroke-width:182.521698;stroke-linecap:round;stroke-linejoin:round;stroke-miterlimit:4;stroke-dasharray:none;stroke-opacity:1"
       id="path848"
       sodipodi:type="arc"
       sodipodi:cx="-494.94"
       sodipodi:cy="106.92"
       sodipodi:rx="47.52"
       sodipodi:ry="59.400002"
       sodipodi:start="3.1405455"
       sodipodi:end="0.53249889"
       d="m -542.45998,106.9822 a 47.52,59.400002 0 0 1 31.36852,-55.92589 47.52,59.400002 0 0 1 52.7239,17.936802 47.52,59.400002 0 0 1 4.36799,68.083548 L -494.94,106.92 Z" />
    <path
       style="opacity:1;fill:#fffffb;fill-opacity:0;stroke:none;stroke-width:182.521698;stroke-linecap:round;stroke-linejoin:round;stroke-miterlimit:4;stroke-dasharray:none;stroke-opacity:1"
       id="path852"
       sodipodi:type="arc"
       sodipodi:cx="-447.42001"
       sodipodi:cy="196.02"
       sodipodi:rx="11.88"
       sodipodi:ry="29.700001"
       sodipodi:start="3.2600487"
       sodipodi:end="0.63789378"
       d="m -459.21676,192.51008 a 11.88,29.700001 0 0 1 9.06528,-25.39439 11.88,29.700001 0 0 1 12.65266,12.56719 11.88,29.700001 0 0 1 -0.37737,34.02362 l -9.54382,-17.6865 z" />
    <path
       style="opacity:1;fill:#ff0000;fill-opacity:0;stroke:none;stroke-width:182.521698;stroke-linecap:round;stroke-linejoin:round;stroke-miterlimit:4;stroke-dasharray:none;stroke-opacity:1"
       id="path854"
       sodipodi:type="arc"
       sodipodi:cx="-411.78"
       sodipodi:cy="154.44"
       sodipodi:rx="83.160004"
       sodipodi:ry="35.639999"
       sodipodi:start="3.2600481"
       sodipodi:end="0.63789341"
       d="m -494.35725,150.22812 a 83.160004,35.639999 0 0 1 63.45695,-30.47329 83.160004,35.639999 0 0 1 88.56867,15.08062 83.160004,35.639999 0 0 1 -2.64161,40.82833 L -411.78,154.44 Z" />
    <path
       style="fill:none;stroke:#4d4d4d;stroke-width:11.88000011px;stroke-linecap:butt;stroke-linejoin:miter;stroke-opacity:1;fill-opacity:1"
       d="m 241.62,249.48 c 0,-35.64 0,-35.64 0,-35.64 h -95.04 v 35.64 z"
       id="path873"
       inkscape:connector-curvature="0" />
  </g>
</svg>
