<?xml version="1.0" encoding="UTF-8" standalone="no"?>
<svg
   xmlns:dc="http://purl.org/dc/elements/1.1/"
   xmlns:cc="http://creativecommons.org/ns#"
   xmlns:rdf="http://www.w3.org/1999/02/22-rdf-syntax-ns#"
   xmlns:svg="http://www.w3.org/2000/svg"
   xmlns="http://www.w3.org/2000/svg"
   id="svg5183"
   version="1.1"
   viewBox="0 0 26.458333 26.458334"
   height="100"
   width="100">
  <defs
     id="defs5177" />
  <metadata
     id="metadata5180">
    <rdf:RDF>
      <cc:Work
         rdf:about="">
        <dc:format>image/svg+xml</dc:format>
        <dc:type
           rdf:resource="http://purl.org/dc/dcmitype/StillImage" />
        <dc:title></dc:title>
      </cc:Work>
    </rdf:RDF>
  </metadata>
  <g
     transform="translate(0,-270.54164)"
     id="layer1">
    <path
       id="path5732"
       d="M 0,296.99997 26.458333,270.54164"
       style="fill:#f20000;stroke:#000000;stroke-width:3.765;stroke-linecap:round;stroke-linejoin:miter;stroke-opacity:1;stroke-miterlimit:4;stroke-dasharray:none;fill-opacity:1" />
    <path
       id="path5734"
       d="m 0,270.54164 26.458333,26.45833"
       style="fill:none;stroke:#000000;stroke-width:4.065;stroke-linecap:round;stroke-linejoin:miter;stroke-opacity:1;stroke-miterlimit:4;stroke-dasharray:none" />
    <path
       transform="matrix(0.26458333,0,0,0.26458333,0,270.54164)"
       id="path4526"
       d="M 97.232284,107.04744 C 96.24589,106.71064 93.028408,103.59623 72.86051,83.456384 L 49.625156,60.253352 26.89857,82.985636 C 10.237907,99.650473 3.8696351,105.86505 3.0392122,106.26915 c -1.5065516,0.73312 -3.6491715,0.87294 -5.246555,0.34238 -3.8067532,-1.26441 -5.8713188,-6.01758 -4.1221338,-9.490247 0.4081069,-0.810215 7.1078606,-7.678649 23.3403556,-23.92799 L 39.778818,50.401724 16.758339,27.357621 C 0.72259049,11.305418 -6.4402277,3.968713 -6.8490856,3.1770974 c -0.8778235,-1.6996094 -0.8397218,-4.697128 0.081856,-6.4397224 1.4447914,-2.7319299 3.8239668,-4.2114448 6.77233158,-4.2114448 3.25467312,0 1.82634792,-1.2650144 27.14971602,24.0454938 12.640561,12.63414 23.094193,22.971165 23.230296,22.971165 0.1361,0 10.533519,-10.270761 23.10537,-22.823916 C 98.95427,-8.7072376 97.12374,-7.1084741 100.49555,-6.8672221 c 4.71937,0.3376692 7.64231,4.936835 5.98228,9.4129742 -0.41806,1.127258 -2.92288,3.72094 -23.353455,24.1818879 L 60.239202,49.646834 83.258323,72.68958 c 16.07474,16.091235 23.195747,23.385579 23.604587,24.179165 0.88669,1.721116 0.83923,4.431565 -0.11149,6.367605 -0.84781,1.72647 -2.53971,3.29303 -4.14856,3.84122 -1.45251,0.49492 -3.872629,0.48134 -5.370576,-0.0301 z"
       style="opacity:1;fill:#f20000;fill-opacity:1;stroke:none;stroke-width:3.87994003;stroke-linecap:round;stroke-linejoin:round;stroke-miterlimit:4;stroke-dasharray:none;stroke-opacity:1" />
  </g>
</svg>
