<?xml version="1.0" encoding="UTF-8" standalone="no"?>
<svg
   xmlns:dc="http://purl.org/dc/elements/1.1/"
   xmlns:cc="http://creativecommons.org/ns#"
   xmlns:rdf="http://www.w3.org/1999/02/22-rdf-syntax-ns#"
   xmlns:svg="http://www.w3.org/2000/svg"
   xmlns="http://www.w3.org/2000/svg"
   xmlns:sodipodi="http://sodipodi.sourceforge.net/DTD/sodipodi-0.dtd"
   xmlns:inkscape="http://www.inkscape.org/namespaces/inkscape"
   width="25"
   height="25"
   viewBox="0 0 210 297"
   version="1.1"
   id="svg3735"
   sodipodi:docname="arrow2.svg"
   inkscape:version="0.92.3 (2405546, 2018-03-11)">
  <defs
     id="defs3729" />
  <sodipodi:namedview
     id="base"
     pagecolor="#ffffff"
     bordercolor="#666666"
     borderopacity="1.0"
     inkscape:pageopacity="0.0"
     inkscape:pageshadow="2"
     inkscape:zoom="25.12"
     inkscape:cx="12.5"
     inkscape:cy="12.5"
     inkscape:document-units="mm"
     inkscape:current-layer="layer1"
     showgrid="false"
     showguides="true"
     inkscape:snap-grids="true"
     inkscape:object-paths="true"
     inkscape:snap-others="true"
     inkscape:window-width="1600"
     inkscape:window-height="821"
     inkscape:window-x="-9"
     inkscape:window-y="-9"
     inkscape:window-maximized="1"
     units="px">
    <inkscape:grid
       type="xygrid"
       id="grid3737" />
  </sodipodi:namedview>
  <metadata
     id="metadata3732">
    <rdf:RDF>
      <cc:Work
         rdf:about="">
        <dc:format>image/svg+xml</dc:format>
        <dc:type
           rdf:resource="http://purl.org/dc/dcmitype/StillImage" />
        <dc:title></dc:title>
      </cc:Work>
    </rdf:RDF>
  </metadata>
  <g
     inkscape:label="Layer 1"
     inkscape:groupmode="layer"
     id="layer1">
    <path
       style="fill:none;stroke:#000000;stroke-width:0.26458332px;stroke-linecap:butt;stroke-linejoin:miter;stroke-opacity:1"
       d="m -10.541605,74.687034 -0.07564,148.166646 232.86032,-52.79779 0.027,-52.91666 z"
       id="path3739"
       inkscape:connector-curvature="0" />
    <path
       style="fill:none;stroke:#000000;stroke-width:0.26458332px;stroke-linecap:butt;stroke-linejoin:miter;stroke-opacity:1"
       d="M 46.525469,85.092964 46.380731,209.93019"
       id="path3743"
       inkscape:connector-curvature="0" />
    <path
       style="fill:none;stroke:#000000;stroke-width:0.26458332px;stroke-linecap:butt;stroke-linejoin:miter;stroke-opacity:1"
       d="M 92.409674,93.459751 92.938521,199.37387"
       id="path3745"
       inkscape:connector-curvature="0" />
    <path
       style="fill:none;stroke:#000000;stroke-width:0.26458332px;stroke-linecap:butt;stroke-linejoin:miter;stroke-opacity:1"
       d="m 138.43252,101.85181 0.22392,87.15617"
       id="path3747"
       inkscape:connector-curvature="0" />
    <path
       style="fill:none;stroke:#000000;stroke-width:0.26458332px;stroke-linecap:butt;stroke-linejoin:miter;stroke-opacity:1"
       d="m 179.23388,109.29176 0.69126,70.35912"
       id="path3749"
       inkscape:connector-curvature="0" />
    <path
       style="fill:#ff0000;stroke-width:0.52513593"
       d="m -9.6390483,75.286861 c 0.1547362,7.8e-5 12.6133572,2.251395 27.6858253,5.002925 15.07247,2.75153 27.587368,5.002875 27.810888,5.002989 0.223517,1.15e-4 0.392101,28.003075 0.374627,62.228805 -0.01747,34.22573 -0.205766,62.22851 -0.418419,62.2284 -0.418546,-2.2e-4 -53.3746627,11.94439 -54.8902338,12.38085 -0.8722426,0.25119 -0.9172078,-3.48697 -0.8815711,-73.28971 0.020655,-40.45492 0.1641524,-73.554339 0.3188836,-73.554259 z"
       id="path3751"
       inkscape:connector-curvature="0" />
    <path
       style="fill:#ff0000;stroke-width:0.52513593"
       d="m 93.748409,94.244537 c 0.729012,3.73e-4 38.011941,6.671153 42.961831,7.686863 l 1.44397,0.2963 -0.0221,43.23822 -0.0221,43.23824 -4.59548,1.06753 c -20.95134,4.86703 -39.708912,8.96213 -39.949211,8.72158 -0.15983,-0.15999 -0.384359,-23.68151 -0.498951,-52.27004 C 92.871495,97.614078 92.91571,94.244113 93.748329,94.244537 Z"
       id="path3753"
       inkscape:connector-curvature="0" />
    <path
       style="fill:#ff0000;fill-opacity:1;stroke-width:0.52513593"
       d="m 180.43338,110.04287 c 0.77911,4.3e-4 31.93351,5.5861 38.45298,6.89426 l 2.75668,0.55314 -0.0133,26.16685 -0.0133,26.16685 -3.80767,0.85243 c -2.09422,0.46884 -11.37051,2.5763 -20.61397,4.68324 -9.24348,2.10696 -16.83353,3.81006 -16.86678,3.78468 -0.0333,-0.0254 -0.2156,-15.5837 -0.40519,-34.57401 -0.31652,-31.70394 -0.27476,-34.52784 0.51067,-34.52744 z"
       id="path4568"
       inkscape:connector-curvature="0" />
    <path
       style="fill:#ececec;fill-opacity:1;stroke-width:0.52513593"
       d="m 139.53328,102.43856 c 0.54111,0.12637 9.60838,1.79222 20.14951,3.70188 10.54113,1.90967 19.19239,3.5097 19.22502,3.55562 0.0326,0.046 0.19005,15.727 0.34984,34.84684 0.27097,32.42586 0.23047,34.78023 -0.60238,35.01436 -3.16504,0.88981 -39.04863,8.80339 -39.19634,8.64416 -0.10044,-0.10828 -0.34616,-19.50091 -0.54604,-43.09474 -0.35387,-41.77012 -0.33757,-42.89184 0.62039,-42.66812 z"
       id="path4570"
       inkscape:connector-curvature="0" />
    <path
       style="fill:#ececec;fill-opacity:1;stroke-width:0.52513593"
       d="m 47.600292,85.818802 c 1.122476,5.56e-4 43.935633,7.838861 44.186176,8.089663 0.455573,0.456038 0.777291,105.362675 0.323116,105.362705 -0.263698,2e-5 -10.338744,2.23983 -22.388993,4.97736 -12.050249,2.73754 -22.153696,4.97721 -22.452104,4.97706 -0.370244,-1.9e-4 -0.532557,-19.59709 -0.51106,-61.70373 0.02823,-55.297093 0.115744,-61.703429 0.842865,-61.703058 z"
       id="path4572"
       inkscape:connector-curvature="0" />
  </g>
</svg>
