<?xml version="1.0" encoding="UTF-8" standalone="no"?>
<svg
   xmlns:dc="http://purl.org/dc/elements/1.1/"
   xmlns:cc="http://creativecommons.org/ns#"
   xmlns:rdf="http://www.w3.org/1999/02/22-rdf-syntax-ns#"
   xmlns:svg="http://www.w3.org/2000/svg"
   xmlns="http://www.w3.org/2000/svg"
   xmlns:sodipodi="http://sodipodi.sourceforge.net/DTD/sodipodi-0.dtd"
   xmlns:inkscape="http://www.inkscape.org/namespaces/inkscape"
   width="25"
   height="25"
   viewBox="0 0 210 297"
   version="1.1"
   id="svg3735"
   sodipodi:docname="icon_arrow.svg"
   inkscape:version="0.92.3 (2405546, 2018-03-11)">
  <defs
     id="defs3729" />
  <sodipodi:namedview
     id="base"
     pagecolor="#ffffff"
     bordercolor="#666666"
     borderopacity="1.0"
     inkscape:pageopacity="0.0"
     inkscape:pageshadow="2"
     inkscape:zoom="10.6525"
     inkscape:cx="7.0306346"
     inkscape:cy="12.032275"
     inkscape:document-units="mm"
     inkscape:current-layer="layer1"
     showgrid="true"
     showguides="true"
     inkscape:snap-grids="true"
     inkscape:object-paths="true"
     inkscape:snap-others="true"
     inkscape:window-width="1600"
     inkscape:window-height="821"
     inkscape:window-x="-9"
     inkscape:window-y="-9"
     inkscape:window-maximized="1"
     units="px">
    <inkscape:grid
       type="xygrid"
       id="grid3737" />
  </sodipodi:namedview>
  <metadata
     id="metadata3732">
    <rdf:RDF>
      <cc:Work
         rdf:about="">
        <dc:format>image/svg+xml</dc:format>
        <dc:type
           rdf:resource="http://purl.org/dc/dcmitype/StillImage" />
        <dc:title />
      </cc:Work>
    </rdf:RDF>
  </metadata>
  <g
     inkscape:label="Layer 1"
     inkscape:groupmode="layer"
     id="layer1">
    <path
       style="fill:none;stroke:#000000;stroke-width:0.23386022px;stroke-linecap:butt;stroke-linejoin:miter;stroke-opacity:1"
       d="M 3.0698223,80.875151 1.8150683,213.02057 206.19771,167.83353 l 0.44813,-47.1948 z"
       id="path3739"
       inkscape:connector-curvature="0" />
    <path
       style="fill:none;stroke:#000000;stroke-width:0.23386022px;stroke-linecap:butt;stroke-linejoin:miter;stroke-opacity:1"
       d="M 52.970615,90.622046 51.842479,201.96"
       id="path3743"
       inkscape:connector-curvature="0" />
    <path
       style="fill:none;stroke:#000000;stroke-width:0.23386022px;stroke-linecap:butt;stroke-linejoin:miter;stroke-opacity:1"
       d="M 93.092846,98.458937 92.706475,192.92536"
       id="path3745"
       inkscape:connector-curvature="0" />
    <path
       style="fill:none;stroke:#000000;stroke-width:0.23386022px;stroke-linecap:butt;stroke-linejoin:miter;stroke-opacity:1"
       d="m 133.3363,106.31951 -0.50298,77.73419"
       id="path3747"
       inkscape:connector-curvature="0" />
    <path
       style="fill:none;stroke:#000000;stroke-width:0.23386022px;stroke-linecap:butt;stroke-linejoin:miter;stroke-opacity:1"
       d="m 169.01397,113.28828 0.0411,62.75713"
       id="path3749"
       inkscape:connector-curvature="0" />
    <path
       style="fill:#000000;stroke-width:0.46415779"
       d="m 3.8555484,81.417493 c 0.1355307,0.0013 11.0298056,2.110984 24.2095016,4.688114 13.179698,2.577128 24.123264,4.687264 24.319041,4.689191 0.195775,0.002 0.118813,24.978432 -0.171028,55.503342 -0.289843,30.52491 -0.679383,55.49834 -0.865645,55.4965 -0.366596,-0.004 -46.8459397,10.21694 -48.1769081,10.59383 -0.7660001,0.21691 -0.7754001,-3.11743 -0.184273,-65.37242 0.342594,-36.08054 0.7337855,-65.599891 0.8693115,-65.598557 z"
       id="path3751"
       inkscape:connector-curvature="0" />
    <path
       style="fill:#000000;stroke-width:0.46415779"
       d="m 94.259126,99.169811 c 0.63853,0.0066 33.240624,6.260289 37.568014,7.206609 l 1.26238,0.27606 -0.36617,38.5629 -0.36615,38.56288 -4.03369,0.91457 c -18.39003,4.16966 -34.852374,7.66877 -35.060924,7.45226 -0.138712,-0.144 -0.146691,-21.12407 -0.01777,-46.62239 0.219251,-43.35484 0.28501,-46.360073 1.014285,-46.352889 z"
       id="path3753"
       inkscape:connector-curvature="0" />
    <path
       style="fill:#000000;fill-opacity:1;stroke-width:0.46415779"
       d="m 170.05857,113.96797 c 0.68241,0.008 27.92531,5.24291 33.62513,6.46288 l 2.41011,0.51585 -0.2216,23.33743 -0.2216,23.33745 -3.34192,0.72915 c -1.83806,0.40103 -9.97993,2.20485 -18.09307,4.00849 -8.11312,1.80364 -14.7748,3.26059 -14.80374,3.23769 -0.0289,-0.0229 -0.0639,-13.90045 -0.0776,-30.83899 -0.0229,-28.27851 0.0364,-30.79673 0.72425,-30.78995 z"
       id="path4568"
       inkscape:connector-curvature="0" />
    <path
       style="opacity:0;fill:#666666;fill-opacity:1;stroke-width:0.24643297"
       d="M 2.9438983,211.77992 C 2.579627,210.81325 2.8112636,169.56959 3.5351338,106.50985 3.7877078,84.506546 3.8710594,81.642641 4.2587954,81.642641 c 0.1092214,0 9.9645056,1.893077 21.9006466,4.206836 11.936139,2.313759 22.73666,4.398957 24.001159,4.633772 l 2.299089,0.42693 -0.161709,27.382741 c -0.246579,41.75484 -0.811654,82.95909 -1.142312,83.29541 -0.06868,0.07 -5.838219,1.37418 -12.821241,2.89854 -6.98302,1.52434 -17.683921,3.88236 -23.779778,5.24004 -6.0958559,1.35766 -11.166805,2.4685 -11.268775,2.4685 -0.1019784,0 -0.2558619,-0.18701 -0.3419926,-0.41547 z"
       id="path18"
       inkscape:connector-curvature="0" />
    <path
       style="opacity:0;fill:#666666;fill-opacity:1;stroke-width:0.24643297"
       d="M 2.9438983,211.77992 C 2.579627,210.81325 2.8112636,169.56959 3.5351338,106.50985 3.7877078,84.506546 3.8710594,81.642641 4.2587954,81.642641 c 0.1092214,0 9.9645056,1.893077 21.9006466,4.206836 11.936139,2.313759 22.73666,4.398957 24.001159,4.633772 l 2.299089,0.42693 -0.161709,27.382741 c -0.246579,41.75484 -0.811654,82.95909 -1.142312,83.29541 -0.06868,0.07 -5.838219,1.37418 -12.821241,2.89854 -6.98302,1.52434 -17.683921,3.88236 -23.779778,5.24004 -6.0958559,1.35766 -11.166805,2.4685 -11.268775,2.4685 -0.1019784,0 -0.2558619,-0.18701 -0.3419926,-0.41547 z"
       id="path20"
       inkscape:connector-curvature="0" />
    <path
       style="opacity:0;fill:#666666;fill-opacity:1;stroke-width:0.24643297"
       d="M 2.9438983,211.77992 C 2.579627,210.81325 2.8112636,169.56959 3.5351338,106.50985 3.7877078,84.506546 3.8710594,81.642641 4.2587954,81.642641 c 0.1092214,0 9.9645056,1.893077 21.9006466,4.206836 11.936139,2.313759 22.73666,4.398957 24.001159,4.633772 l 2.299089,0.42693 -0.161709,27.382741 c -0.246579,41.75484 -0.811654,82.95909 -1.142312,83.29541 -0.06868,0.07 -5.838219,1.37418 -12.821241,2.89854 -6.98302,1.52434 -17.683921,3.88236 -23.779778,5.24004 -6.0958559,1.35766 -11.166805,2.4685 -11.268775,2.4685 -0.1019784,0 -0.2558619,-0.18701 -0.3419926,-0.41547 z"
       id="path22"
       inkscape:connector-curvature="0" />
    <path
       style="opacity:0;fill:#666666;fill-opacity:1;stroke-width:0.24643297"
       d="m 52.127726,199.90183 c -0.01016,-2.36374 1.045739,-108.924879 1.079739,-108.967707 0.02861,-0.03602 39.558156,7.662697 39.6353,7.719344 0.08222,0.0604 -0.388252,93.955383 -0.471185,94.039893 -0.04471,0.0456 -9.115697,2.08077 -20.158476,4.5235 l -20.077793,4.44134 z"
       id="path24"
       inkscape:connector-curvature="0" />
    <path
       style="opacity:0;fill:#666666;fill-opacity:1;stroke-width:0.24643297"
       d="M 2.9438983,211.77992 C 2.579627,210.81325 2.8112636,169.56959 3.5351338,106.50985 3.7877078,84.506546 3.8710594,81.642641 4.2587954,81.642641 c 0.1092214,0 9.9645056,1.893077 21.9006466,4.206836 11.936139,2.313759 22.73666,4.398957 24.001159,4.633772 l 2.299089,0.42693 -0.161709,27.382741 c -0.246579,41.75484 -0.811654,82.95909 -1.142312,83.29541 -0.06868,0.07 -5.838219,1.37418 -12.821241,2.89854 -6.98302,1.52434 -17.683921,3.88236 -23.779778,5.24004 -6.0958559,1.35766 -11.166805,2.4685 -11.268775,2.4685 -0.1019784,0 -0.2558619,-0.18701 -0.3419926,-0.41547 z"
       id="path26"
       inkscape:connector-curvature="0" />
    <path
       style="opacity:0;fill:#666666;fill-opacity:1;stroke-width:0.24643297"
       d="M 2.9438983,211.77992 C 2.579627,210.81325 2.8112636,169.56959 3.5351338,106.50985 3.7877078,84.506546 3.8710594,81.642641 4.2587954,81.642641 c 0.1092214,0 9.9645056,1.893077 21.9006466,4.206836 11.936139,2.313759 22.73666,4.398957 24.001159,4.633772 l 2.299089,0.42693 -0.161709,27.382741 c -0.246579,41.75484 -0.811654,82.95909 -1.142312,83.29541 -0.06868,0.07 -5.838219,1.37418 -12.821241,2.89854 -6.98302,1.52434 -17.683921,3.88236 -23.779778,5.24004 -6.0958559,1.35766 -11.166805,2.4685 -11.268775,2.4685 -0.1019784,0 -0.2558619,-0.18701 -0.3419926,-0.41547 z"
       id="path28"
       inkscape:connector-curvature="0" />
    <path
       style="opacity:0;fill:#666666;fill-opacity:1;stroke-width:0.24643297"
       d="M -197.94,152.76283 V 23.950745 H 87.179995 372.3 V 152.76283 281.5749 H 87.179995 -197.94 Z m 302.06538,37.8905 c 56.09278,-12.39523 102.05921,-22.60632 102.1476,-22.69131 0.13475,-0.1296 0.69803,-47.27141 0.56712,-47.46855 C 206.7662,120.38212 2.9998218,80.614189 2.9221322,80.695951 c -0.039858,0.04196 -0.3002125,24.527009 -0.5784681,54.411169 -0.2782547,29.88415 -0.5781239,59.67816 -0.6663555,66.20891 -0.1287845,9.53186 -0.099169,11.87408 0.1503766,11.87408 0.1709387,0 46.2049148,-10.14155 102.2976948,-22.53678 z"
       id="path30"
       inkscape:connector-curvature="0" />
    <path
       style="opacity:0;fill:#ff0000;fill-opacity:1;stroke-width:0.24643297"
       d="M 2.9438983,211.77992 C 2.579627,210.81325 2.8112636,169.56959 3.5351338,106.50985 3.7877078,84.506546 3.8710594,81.642641 4.2587954,81.642641 c 0.1092214,0 9.9645056,1.893077 21.9006466,4.206836 11.936139,2.313759 22.73666,4.398957 24.001159,4.633772 l 2.299089,0.42693 -0.161709,27.382741 c -0.246579,41.75484 -0.811654,82.95909 -1.142312,83.29541 -0.06868,0.07 -5.838219,1.37418 -12.821241,2.89854 -6.98302,1.52434 -17.683921,3.88236 -23.779778,5.24004 -6.0958559,1.35766 -11.166805,2.4685 -11.268775,2.4685 -0.1019784,0 -0.2558619,-0.18701 -0.3419926,-0.41547 z"
       id="path32"
       inkscape:connector-curvature="0" />
    <path
       style="opacity:0;fill:#ff0000;fill-opacity:1;stroke-width:0.24643297"
       d="M 2.9438983,211.77992 C 2.579627,210.81325 2.8112636,169.56959 3.5351338,106.50985 3.7877078,84.506546 3.8710594,81.642641 4.2587954,81.642641 c 0.1092214,0 9.9645056,1.893077 21.9006466,4.206836 11.936139,2.313759 22.73666,4.398957 24.001159,4.633772 l 2.299089,0.42693 -0.161709,27.382741 c -0.246579,41.75484 -0.811654,82.95909 -1.142312,83.29541 -0.06868,0.07 -5.838219,1.37418 -12.821241,2.89854 -6.98302,1.52434 -17.683921,3.88236 -23.779778,5.24004 -6.0958559,1.35766 -11.166805,2.4685 -11.268775,2.4685 -0.1019784,0 -0.2558619,-0.18701 -0.3419926,-0.41547 z"
       id="path34"
       inkscape:connector-curvature="0" />
    <path
       style="opacity:0.06000001;fill:#ff0000;fill-opacity:1;stroke-width:0.24643297"
       d="M 2.9438983,211.77992 C 2.579627,210.81325 2.8112636,169.56959 3.5351338,106.50985 3.7877078,84.506546 3.8710594,81.642641 4.2587954,81.642641 c 0.1092214,0 9.9645056,1.893077 21.9006466,4.206836 11.936139,2.313759 22.73666,4.398957 24.001159,4.633772 l 2.299089,0.42693 -0.161709,27.382741 c -0.246579,41.75484 -0.811654,82.95909 -1.142312,83.29541 -0.06868,0.07 -5.838219,1.37418 -12.821241,2.89854 -6.98302,1.52434 -17.683921,3.88236 -23.779778,5.24004 -6.0958559,1.35766 -11.166805,2.4685 -11.268775,2.4685 -0.1019784,0 -0.2558619,-0.18701 -0.3419926,-0.41547 z"
       id="path40"
       inkscape:connector-curvature="0" />
    <path
       style="opacity:1;fill:#4d4d4d;fill-opacity:1;stroke-width:0.24643297"
       d="M 2.9254529,211.76026 C 2.5680176,210.87157 2.8115798,168.80906 3.5384892,105.88816 3.7910313,84.028425 3.8616566,81.642641 4.2561885,81.642641 c 0.1106459,0 9.9671135,1.893077 21.9032545,4.206836 11.93614,2.313759 22.718613,4.395578 23.961053,4.626266 l 2.25898,0.419429 -0.002,13.588958 c -0.0036,23.97357 -0.817326,95.33989 -1.102417,96.68225 -0.09303,0.43792 -0.432795,0.60481 -1.885592,0.92587 -0.974675,0.2154 -7.212012,1.57546 -13.860741,3.02236 -6.648729,1.44691 -16.581771,3.63203 -22.073424,4.8558 -5.491725,1.22378 -10.0681403,2.22507 -10.1698839,2.22507 -0.1017699,0 -0.2637493,-0.19582 -0.3600152,-0.43517 z"
       id="path847"
       inkscape:connector-curvature="0" />
    <path
       style="opacity:1;fill:#4d4d4d;fill-opacity:1;stroke-width:0.24643297"
       d="m 93.309394,186.16539 c -0.194799,-6.97903 0.285338,-81.88512 0.542781,-84.67582 0.09678,-1.05152 0.246518,-1.983266 0.332258,-2.070543 0.262439,-0.267223 38.305157,7.015903 38.689117,7.406873 0.19241,0.19593 -0.62789,76.61645 -0.82436,76.7991 -0.27534,0.256 -29.72259,6.76105 -35.34477,7.80786 -1.20885,0.22505 -2.430047,0.46495 -2.713748,0.53308 -0.510509,0.1225 -0.517591,0.0626 -0.681166,-5.80051 z"
       id="path849"
       inkscape:connector-curvature="0" />
    <path
       style="opacity:1;fill:#4d4d4d;fill-opacity:1;stroke-width:0.24643297"
       d="m 169.4773,166.52155 c -0.20417,-9.96481 0.007,-50.53824 0.26909,-51.64918 0.16442,-0.69766 0.19689,-0.71055 1.41631,-0.56307 1.43354,0.17337 15.98196,2.93587 27.2139,5.16746 l 7.64984,1.51989 -0.14464,14.08021 c -0.079,7.74411 -0.21041,18.22062 -0.29085,23.28109 l -0.1462,9.20085 -17.37178,3.81803 c -9.55448,2.09992 -17.60608,3.87121 -17.89247,3.93619 l -0.52071,0.11815 z"
       id="path851"
       inkscape:connector-curvature="0" />
  </g>
</svg>
