<?xml version="1.0" encoding="UTF-8" standalone="no"?>
<svg
   xmlns:dc="http://purl.org/dc/elements/1.1/"
   xmlns:cc="http://creativecommons.org/ns#"
   xmlns:rdf="http://www.w3.org/1999/02/22-rdf-syntax-ns#"
   xmlns:svg="http://www.w3.org/2000/svg"
   xmlns="http://www.w3.org/2000/svg"
   xmlns:sodipodi="http://sodipodi.sourceforge.net/DTD/sodipodi-0.dtd"
   xmlns:inkscape="http://www.inkscape.org/namespaces/inkscape"
   width="25"
   height="25"
   viewBox="0 0 210 297"
   version="1.1"
   id="svg3735"
   sodipodi:docname="icon_arrow.svg"
   inkscape:version="0.92.3 (2405546, 2018-03-11)">
  <defs
     id="defs3729" />
  <sodipodi:namedview
     id="base"
     pagecolor="#ffffff"
     bordercolor="#666666"
     borderopacity="1.0"
     inkscape:pageopacity="0.0"
     inkscape:pageshadow="2"
     inkscape:zoom="42.61"
     inkscape:cx="7.0306346"
     inkscape:cy="12.032275"
     inkscape:document-units="mm"
     inkscape:current-layer="layer1"
     showgrid="false"
     showguides="true"
     inkscape:snap-grids="true"
     inkscape:object-paths="true"
     inkscape:snap-others="true"
     inkscape:window-width="1600"
     inkscape:window-height="821"
     inkscape:window-x="-9"
     inkscape:window-y="-9"
     inkscape:window-maximized="1"
     units="px">
    <inkscape:grid
       type="xygrid"
       id="grid3737" />
  </sodipodi:namedview>
  <metadata
     id="metadata3732">
    <rdf:RDF>
      <cc:Work
         rdf:about="">
        <dc:format>image/svg+xml</dc:format>
        <dc:type
           rdf:resource="http://purl.org/dc/dcmitype/StillImage" />
        <dc:title />
      </cc:Work>
    </rdf:RDF>
  </metadata>
  <g
     inkscape:label="Layer 1"
     inkscape:groupmode="layer"
     id="layer1">
    <path
       style="fill:none;stroke:#000000;stroke-width:0.26458332px;stroke-linecap:butt;stroke-linejoin:miter;stroke-opacity:1"
       d="m -9.8580041,73.624327 -1.4324939,148.159733 233.334058,-50.66312 0.5116,-52.9142 z"
       id="path3739"
       inkscape:connector-curvature="0" />
    <path
       style="fill:none;stroke:#000000;stroke-width:0.26458332px;stroke-linecap:butt;stroke-linejoin:miter;stroke-opacity:1"
       d="M 47.111384,84.552419 45.823445,209.38309"
       id="path3743"
       inkscape:connector-curvature="0" />
    <path
       style="fill:none;stroke:#000000;stroke-width:0.26458332px;stroke-linecap:butt;stroke-linejoin:miter;stroke-opacity:1"
       d="M 92.917045,93.339044 92.475949,199.25357"
       id="path3745"
       inkscape:connector-curvature="0" />
    <path
       style="fill:none;stroke:#000000;stroke-width:0.26458332px;stroke-linecap:butt;stroke-linejoin:miter;stroke-opacity:1"
       d="m 138.86111,102.15221 -0.57423,87.15457"
       id="path3747"
       inkscape:connector-curvature="0" />
    <path
       style="fill:none;stroke:#000000;stroke-width:0.26458332px;stroke-linecap:butt;stroke-linejoin:miter;stroke-opacity:1"
       d="m 179.59263,109.9655 0.0469,70.36249"
       id="path3749"
       inkscape:connector-curvature="0" />
    <path
       style="fill:#000000;stroke-width:0.52513593"
       d="m -8.9609775,74.232393 c 0.154729,0.0015 12.5922109,2.366809 27.6388495,5.256252 15.046641,2.889443 27.540397,5.2553 27.763906,5.257461 0.223507,0.0022 0.135643,28.005494 -0.195255,62.229624 -0.330899,34.22414 -0.775619,62.22402 -0.988265,62.22196 -0.418527,-0.004 -53.4818074,11.4551 -55.001312,11.87767 -0.874506,0.24319 -0.885237,-3.49523 -0.2103752,-73.29471 0.3911234,-40.45304 0.8377279,-73.549753 0.9924517,-73.548257 z"
       id="path3751"
       inkscape:connector-curvature="0" />
    <path
       style="fill:#000000;stroke-width:0.52513593"
       d="m 94.248538,94.136058 c 0.728978,0.007 37.949252,7.018962 42.889632,8.079962 l 1.4412,0.30952 -0.41803,43.23621 -0.41803,43.23621 -4.60507,1.02541 c -20.99503,4.67497 -39.789319,8.59811 -40.027405,8.35537 -0.158358,-0.16144 -0.167476,-23.68403 -0.02026,-52.27242 0.250309,-48.608893 0.325383,-51.978312 1.157964,-51.970262 z"
       id="path3753"
       inkscape:connector-curvature="0" />
    <path
       style="fill:#000000;fill-opacity:1;stroke-width:0.52513593"
       d="m 180.7852,110.72756 c 0.77907,0.008 31.88102,5.87829 38.38823,7.24611 l 2.7515,0.57836 -0.25298,26.16563 -0.25299,26.16563 -3.81532,0.81752 c -2.09842,0.44964 -11.39362,2.47206 -20.656,4.49427 -9.26237,2.02222 -16.8677,3.65574 -16.90073,3.63006 -0.033,-0.0257 -0.0729,-15.58501 -0.0886,-34.57628 -0.0262,-31.7055 0.0415,-34.5289 0.82685,-34.5213 z"
       id="path4568"
       inkscape:connector-curvature="0" />
    <path
       style="opacity:0;fill:#666666;fill-opacity:1;stroke-width:0.02346867"
       d="m 2.8197167,18.551604 c -0.035006,-0.09123 -0.012746,-3.983643 0.056817,-9.9349705 0.024272,-2.0765831 0.032282,-2.346867 0.069543,-2.346867 0.010496,0 0.9575764,0.178661 2.1046244,0.3970244 1.1470479,0.2183634 2.1849643,0.415156 2.3064811,0.4373169 l 0.2209395,0.040292 -0.01554,2.5842743 c -0.023696,3.9406549 -0.077999,7.8293489 -0.1097747,7.8610889 -0.0066,0.0066 -0.5610455,0.129689 -1.2321051,0.273552 -0.6710594,0.143861 -1.6994025,0.366402 -2.2852066,0.494534 -0.5858041,0.128132 -1.0731159,0.232968 -1.0829151,0.232968 -0.0098,0 -0.024588,-0.01765 -0.032865,-0.03921 z"
       id="path18"
       inkscape:connector-curvature="0"
       transform="matrix(11.88,0,0,11.88,-43.5,0)" />
    <path
       style="opacity:0;fill:#666666;fill-opacity:1;stroke-width:0.02346867"
       d="m 2.8197167,18.551604 c -0.035006,-0.09123 -0.012746,-3.983643 0.056817,-9.9349705 0.024272,-2.0765831 0.032282,-2.346867 0.069543,-2.346867 0.010496,0 0.9575764,0.178661 2.1046244,0.3970244 1.1470479,0.2183634 2.1849643,0.415156 2.3064811,0.4373169 l 0.2209395,0.040292 -0.01554,2.5842743 c -0.023696,3.9406549 -0.077999,7.8293489 -0.1097747,7.8610889 -0.0066,0.0066 -0.5610455,0.129689 -1.2321051,0.273552 -0.6710594,0.143861 -1.6994025,0.366402 -2.2852066,0.494534 -0.5858041,0.128132 -1.0731159,0.232968 -1.0829151,0.232968 -0.0098,0 -0.024588,-0.01765 -0.032865,-0.03921 z"
       id="path20"
       inkscape:connector-curvature="0"
       transform="matrix(11.88,0,0,11.88,-43.5,0)" />
    <path
       style="opacity:0;fill:#666666;fill-opacity:1;stroke-width:0.02346867"
       d="m 2.8197167,18.551604 c -0.035006,-0.09123 -0.012746,-3.983643 0.056817,-9.9349705 0.024272,-2.0765831 0.032282,-2.346867 0.069543,-2.346867 0.010496,0 0.9575764,0.178661 2.1046244,0.3970244 1.1470479,0.2183634 2.1849643,0.415156 2.3064811,0.4373169 l 0.2209395,0.040292 -0.01554,2.5842743 c -0.023696,3.9406549 -0.077999,7.8293489 -0.1097747,7.8610889 -0.0066,0.0066 -0.5610455,0.129689 -1.2321051,0.273552 -0.6710594,0.143861 -1.6994025,0.366402 -2.2852066,0.494534 -0.5858041,0.128132 -1.0731159,0.232968 -1.0829151,0.232968 -0.0098,0 -0.024588,-0.01765 -0.032865,-0.03921 z"
       id="path22"
       inkscape:connector-curvature="0"
       transform="matrix(11.88,0,0,11.88,-43.5,0)" />
    <path
       style="opacity:0;fill:#666666;fill-opacity:1;stroke-width:0.02346867"
       d="M 7.5462203,17.430598 C 7.5452445,17.207517 7.6467146,7.1507015 7.649982,7.1466595 c 0.00275,-0.0034 3.801489,0.7231748 3.808902,0.7285213 0.0079,0.0057 -0.03731,8.8671342 -0.04528,8.8751102 -0.0043,0.0043 -0.876007,0.196375 -1.9372042,0.42691 l -1.9294505,0.419156 z"
       id="path24"
       inkscape:connector-curvature="0"
       transform="matrix(11.88,0,0,11.88,-43.5,0)" />
    <path
       style="opacity:0;fill:#666666;fill-opacity:1;stroke-width:0.02346867"
       d="m 2.8197167,18.551604 c -0.035006,-0.09123 -0.012746,-3.983643 0.056817,-9.9349705 0.024272,-2.0765831 0.032282,-2.346867 0.069543,-2.346867 0.010496,0 0.9575764,0.178661 2.1046244,0.3970244 1.1470479,0.2183634 2.1849643,0.415156 2.3064811,0.4373169 l 0.2209395,0.040292 -0.01554,2.5842743 c -0.023696,3.9406549 -0.077999,7.8293489 -0.1097747,7.8610889 -0.0066,0.0066 -0.5610455,0.129689 -1.2321051,0.273552 -0.6710594,0.143861 -1.6994025,0.366402 -2.2852066,0.494534 -0.5858041,0.128132 -1.0731159,0.232968 -1.0829151,0.232968 -0.0098,0 -0.024588,-0.01765 -0.032865,-0.03921 z"
       id="path26"
       inkscape:connector-curvature="0"
       transform="matrix(11.88,0,0,11.88,-43.5,0)" />
    <path
       style="opacity:0;fill:#666666;fill-opacity:1;stroke-width:0.02346867"
       d="m 2.8197167,18.551604 c -0.035006,-0.09123 -0.012746,-3.983643 0.056817,-9.9349705 0.024272,-2.0765831 0.032282,-2.346867 0.069543,-2.346867 0.010496,0 0.9575764,0.178661 2.1046244,0.3970244 1.1470479,0.2183634 2.1849643,0.415156 2.3064811,0.4373169 l 0.2209395,0.040292 -0.01554,2.5842743 c -0.023696,3.9406549 -0.077999,7.8293489 -0.1097747,7.8610889 -0.0066,0.0066 -0.5610455,0.129689 -1.2321051,0.273552 -0.6710594,0.143861 -1.6994025,0.366402 -2.2852066,0.494534 -0.5858041,0.128132 -1.0731159,0.232968 -1.0829151,0.232968 -0.0098,0 -0.024588,-0.01765 -0.032865,-0.03921 z"
       id="path28"
       inkscape:connector-curvature="0"
       transform="matrix(11.88,0,0,11.88,-43.5,0)" />
    <path
       style="opacity:0;fill:#666666;fill-opacity:1;stroke-width:0.02346867"
       d="M -16.484972,12.981806 V 0.82503526 H 10.914699 38.314371 V 12.981806 25.138577 H 10.914699 -16.484972 Z m 29.028101,3.575955 c 5.390446,-1.169812 9.807761,-2.133494 9.816255,-2.141516 0.01295,-0.01223 0.06708,-4.4612862 0.0545,-4.4798917 -0.0071,-0.010509 -19.5887931,-3.763648 -19.596259,-3.7559317 -0.00383,0.00396 -0.02885,2.3147615 -0.05559,5.1351084 -0.02674,2.820348 -0.055557,5.632188 -0.064036,6.248534 -0.012376,0.899579 -0.00953,1.120629 0.014451,1.120629 0.016427,0 4.440234,-0.95712 9.830679,-2.126932 z"
       id="path30"
       inkscape:connector-curvature="0"
       transform="matrix(11.88,0,0,11.88,-43.5,0)" />
    <path
       style="opacity:0;fill:#ff0000;fill-opacity:1;stroke-width:0.02346867"
       d="m 2.8197167,18.551604 c -0.035006,-0.09123 -0.012746,-3.983643 0.056817,-9.9349705 0.024272,-2.0765831 0.032282,-2.346867 0.069543,-2.346867 0.010496,0 0.9575764,0.178661 2.1046244,0.3970244 1.1470479,0.2183634 2.1849643,0.415156 2.3064811,0.4373169 l 0.2209395,0.040292 -0.01554,2.5842743 c -0.023696,3.9406549 -0.077999,7.8293489 -0.1097747,7.8610889 -0.0066,0.0066 -0.5610455,0.129689 -1.2321051,0.273552 -0.6710594,0.143861 -1.6994025,0.366402 -2.2852066,0.494534 -0.5858041,0.128132 -1.0731159,0.232968 -1.0829151,0.232968 -0.0098,0 -0.024588,-0.01765 -0.032865,-0.03921 z"
       id="path32"
       inkscape:connector-curvature="0"
       transform="matrix(11.88,0,0,11.88,-43.5,0)" />
    <path
       style="opacity:0;fill:#ff0000;fill-opacity:1;stroke-width:0.02346867"
       d="m 2.8197167,18.551604 c -0.035006,-0.09123 -0.012746,-3.983643 0.056817,-9.9349705 0.024272,-2.0765831 0.032282,-2.346867 0.069543,-2.346867 0.010496,0 0.9575764,0.178661 2.1046244,0.3970244 1.1470479,0.2183634 2.1849643,0.415156 2.3064811,0.4373169 l 0.2209395,0.040292 -0.01554,2.5842743 c -0.023696,3.9406549 -0.077999,7.8293489 -0.1097747,7.8610889 -0.0066,0.0066 -0.5610455,0.129689 -1.2321051,0.273552 -0.6710594,0.143861 -1.6994025,0.366402 -2.2852066,0.494534 -0.5858041,0.128132 -1.0731159,0.232968 -1.0829151,0.232968 -0.0098,0 -0.024588,-0.01765 -0.032865,-0.03921 z"
       id="path34"
       inkscape:connector-curvature="0"
       transform="matrix(11.88,0,0,11.88,-43.5,0)" />
    <path
       style="opacity:0.06;fill:#ff0000;fill-opacity:1;stroke-width:0.02346867"
       d="m 2.8197167,18.551604 c -0.035006,-0.09123 -0.012746,-3.983643 0.056817,-9.9349705 0.024272,-2.0765831 0.032282,-2.346867 0.069543,-2.346867 0.010496,0 0.9575764,0.178661 2.1046244,0.3970244 1.1470479,0.2183634 2.1849643,0.415156 2.3064811,0.4373169 l 0.2209395,0.040292 -0.01554,2.5842743 c -0.023696,3.9406549 -0.077999,7.8293489 -0.1097747,7.8610889 -0.0066,0.0066 -0.5610455,0.129689 -1.2321051,0.273552 -0.6710594,0.143861 -1.6994025,0.366402 -2.2852066,0.494534 -0.5858041,0.128132 -1.0731159,0.232968 -1.0829151,0.232968 -0.0098,0 -0.024588,-0.01765 -0.032865,-0.03921 z"
       id="path40"
       inkscape:connector-curvature="0"
       transform="matrix(11.88,0,0,11.88,-43.5,0)" />
    <path
       style="opacity:1;fill:#4d4d4d;fill-opacity:1;stroke-width:0.02346867"
       d="m 2.8179441,18.549748 c -0.034349,-0.08387 -0.010943,-4.053563 0.058912,-9.9917862 0.024269,-2.0630345 0.031056,-2.2881953 0.06897,-2.2881953 0.010633,0 0.9578271,0.178661 2.1048751,0.3970244 1.1470479,0.2183634 2.18323,0.4148372 2.3026269,0.4366086 l 0.2170852,0.039584 -1.878e-4,1.2824715 c -3.426e-4,2.26253 -0.078544,8.997799 -0.1059409,9.124485 -0.00894,0.04133 -0.041591,0.05708 -0.181203,0.08738 -0.093665,0.02033 -0.6930652,0.148686 -1.3319997,0.285239 -0.6389345,0.136554 -1.5934872,0.342776 -2.1212282,0.458271 -0.5277478,0.115496 -0.9675355,0.209993 -0.9773129,0.209993 -0.00978,0 -0.025346,-0.01848 -0.034597,-0.04107 z"
       id="path847"
       inkscape:connector-curvature="0"
       transform="matrix(11.88,0,0,11.88,-43.5,0)" />
    <path
       style="opacity:1;fill:#4d4d4d;fill-opacity:1;stroke-width:0.02346867"
       d="m 11.503727,16.134207 c -0.01872,-0.658653 0.02742,-7.7279914 0.05216,-7.991366 0.0093,-0.099239 0.02369,-0.1871735 0.03193,-0.1954104 0.02522,-0.025219 3.681077,0.6621331 3.717975,0.6990315 0.01849,0.018491 -0.06034,7.2307549 -0.07922,7.2479929 -0.02646,0.02416 -2.856303,0.638081 -3.396588,0.736875 -0.116169,0.02124 -0.233524,0.04388 -0.260787,0.05031 -0.04906,0.01156 -0.04974,0.0059 -0.06546,-0.547429 z"
       id="path849"
       inkscape:connector-curvature="0"
       transform="matrix(11.88,0,0,11.88,-43.5,0)" />
    <path
       style="opacity:1;fill:#4d4d4d;fill-opacity:1;stroke-width:0.02346867"
       d="m 18.823366,14.2803 c -0.01962,-0.940439 6.95e-4,-4.7695976 0.02586,-4.8744446 0.0158,-0.065842 0.01892,-0.067058 0.136105,-0.05314 0.137761,0.016362 1.535846,0.2770757 2.615221,0.4876842 l 0.73514,0.1434411 -0.0139,1.3288343 c -0.0076,0.730859 -0.02022,1.719589 -0.02795,2.197176 l -0.01405,0.868341 -1.669406,0.36033 c -0.918173,0.198182 -1.691922,0.365349 -1.719443,0.371482 l -0.05004,0.01115 z"
       id="path851"
       inkscape:connector-curvature="0"
       transform="matrix(11.88,0,0,11.88,-43.5,0)" />
  </g>
</svg>
