<?xml version="1.0" encoding="UTF-8" standalone="no"?>
<svg
   xmlns:dc="http://purl.org/dc/elements/1.1/"
   xmlns:cc="http://creativecommons.org/ns#"
   xmlns:rdf="http://www.w3.org/1999/02/22-rdf-syntax-ns#"
   xmlns:svg="http://www.w3.org/2000/svg"
   xmlns="http://www.w3.org/2000/svg"
   xmlns:sodipodi="http://sodipodi.sourceforge.net/DTD/sodipodi-0.dtd"
   xmlns:inkscape="http://www.inkscape.org/namespaces/inkscape"
   width="25"
   height="25"
   viewBox="0 0 210 297"
   version="1.1"
   id="svg3735"
   sodipodi:docname="arrowicon.svg"
   inkscape:version="0.92.3 (2405546, 2018-03-11)">
  <defs
     id="defs3729" />
  <sodipodi:namedview
     id="base"
     pagecolor="#ffffff"
     bordercolor="#666666"
     borderopacity="1.0"
     inkscape:pageopacity="0.0"
     inkscape:pageshadow="2"
     inkscape:zoom="18.55"
     inkscape:cx="10.902965"
     inkscape:cy="12.971022"
     inkscape:document-units="mm"
     inkscape:current-layer="layer1"
     showgrid="false"
     showguides="true"
     inkscape:snap-grids="true"
     inkscape:object-paths="true"
     inkscape:snap-others="true"
     inkscape:window-width="1600"
     inkscape:window-height="821"
     inkscape:window-x="-9"
     inkscape:window-y="-9"
     inkscape:window-maximized="1"
     units="px">
    <inkscape:grid
       type="xygrid"
       id="grid3737" />
  </sodipodi:namedview>
  <metadata
     id="metadata3732">
    <rdf:RDF>
      <cc:Work
         rdf:about="">
        <dc:format>image/svg+xml</dc:format>
        <dc:type
           rdf:resource="http://purl.org/dc/dcmitype/StillImage" />
        <dc:title />
      </cc:Work>
    </rdf:RDF>
  </metadata>
  <g
     inkscape:label="Layer 1"
     inkscape:groupmode="layer"
     id="layer1">
    <path
       style="fill:none;stroke:#000000;stroke-width:0.26458332px;stroke-linecap:butt;stroke-linejoin:miter;stroke-opacity:1"
       d="m -9.8580041,73.624327 -1.4324939,148.159733 233.334058,-50.66312 0.5116,-52.9142 z"
       id="path3739"
       inkscape:connector-curvature="0" />
    <path
       style="fill:none;stroke:#000000;stroke-width:0.26458332px;stroke-linecap:butt;stroke-linejoin:miter;stroke-opacity:1"
       d="M 47.111384,84.552419 45.823445,209.38309"
       id="path3743"
       inkscape:connector-curvature="0" />
    <path
       style="fill:none;stroke:#000000;stroke-width:0.26458332px;stroke-linecap:butt;stroke-linejoin:miter;stroke-opacity:1"
       d="M 92.917045,93.339044 92.475949,199.25357"
       id="path3745"
       inkscape:connector-curvature="0" />
    <path
       style="fill:none;stroke:#000000;stroke-width:0.26458332px;stroke-linecap:butt;stroke-linejoin:miter;stroke-opacity:1"
       d="m 138.86111,102.15221 -0.57423,87.15457"
       id="path3747"
       inkscape:connector-curvature="0" />
    <path
       style="fill:none;stroke:#000000;stroke-width:0.26458332px;stroke-linecap:butt;stroke-linejoin:miter;stroke-opacity:1"
       d="m 179.59263,109.9655 0.0469,70.36249"
       id="path3749"
       inkscape:connector-curvature="0" />
    <path
       style="fill:#000000;stroke-width:0.52513593"
       d="m -8.9609775,74.232393 c 0.154729,0.0015 12.5922109,2.366809 27.6388495,5.256252 15.046641,2.889443 27.540397,5.2553 27.763906,5.257461 0.223507,0.0022 0.135643,28.005494 -0.195255,62.229624 -0.330899,34.22414 -0.775619,62.22402 -0.988265,62.22196 -0.418527,-0.004 -53.4818074,11.4551 -55.001312,11.87767 -0.874506,0.24319 -0.885237,-3.49523 -0.2103752,-73.29471 0.3911234,-40.45304 0.8377279,-73.549753 0.9924517,-73.548257 z"
       id="path3751"
       inkscape:connector-curvature="0" />
    <path
       style="fill:#000000;stroke-width:0.52513593"
       d="m 94.248538,94.136058 c 0.728978,0.007 37.949252,7.018962 42.889632,8.079962 l 1.4412,0.30952 -0.41803,43.23621 -0.41803,43.23621 -4.60507,1.02541 c -20.99503,4.67497 -39.789319,8.59811 -40.027405,8.35537 -0.158358,-0.16144 -0.167476,-23.68403 -0.02026,-52.27242 0.250309,-48.608893 0.325383,-51.978312 1.157964,-51.970262 z"
       id="path3753"
       inkscape:connector-curvature="0" />
    <path
       style="fill:#000000;fill-opacity:1;stroke-width:0.52513593"
       d="m 180.7852,110.72756 c 0.77907,0.008 31.88102,5.87829 38.38823,7.24611 l 2.7515,0.57836 -0.25298,26.16563 -0.25299,26.16563 -3.81532,0.81752 c -2.09842,0.44964 -11.39362,2.47206 -20.656,4.49427 -9.26237,2.02222 -16.8677,3.65574 -16.90073,3.63006 -0.033,-0.0257 -0.0729,-15.58501 -0.0886,-34.57628 -0.0262,-31.7055 0.0415,-34.5289 0.82685,-34.5213 z"
       id="path4568"
       inkscape:connector-curvature="0" />
    <path
       style="fill:#ececec;fill-opacity:1;stroke-width:0.52513593"
       d="m 139.95645,102.74902 c 0.53992,0.13132 9.59157,1.88013 20.11476,3.88625 10.52321,2.00611 19.15945,3.6853 19.19166,3.73152 0.0322,0.0462 0.046,15.72808 0.0307,34.84858 -0.026,32.42698 -0.088,34.78088 -0.92301,35.00738 -3.17305,0.86078 -39.1276,8.44542 -39.27385,8.28484 -0.0994,-0.10918 -0.16756,-19.50326 -0.15137,-43.09792 0.0287,-41.77162 0.0552,-42.89313 1.0111,-42.66065 z"
       id="path4570"
       inkscape:connector-curvature="0" />
    <path
       style="fill:#ececec;fill-opacity:1;stroke-width:0.52513593"
       d="m 48.179515,85.288069 c 1.122424,0.01085 43.862005,8.240877 44.110241,8.493963 0.451378,0.460192 -0.187612,105.365378 -0.641769,105.361248 -0.263686,-0.002 -10.358821,2.14505 -22.433634,4.77212 -12.074813,2.62707 -22.198346,4.77413 -22.49674,4.77124 -0.370228,-0.004 -0.353073,-19.60115 0.05402,-61.70583 0.534619,-55.294505 0.680793,-61.699771 1.407882,-61.692741 z"
       id="path4572"
       inkscape:connector-curvature="0" />
  </g>
</svg>
